<svg width="512" height="512" viewBox="0 0 512 512" fill="none" xmlns="http://www.w3.org/2000/svg">
  <rect width="512" height="512" rx="64" fill="#303d25"/>
  <path d="M256 128C256 128 320 160 320 224C320 288 256 320 256 320C256 320 192 288 192 224C192 160 256 128 256 128Z" fill="#e3c79f"/>
  <path d="M256 192C256 192 288 208 288 240C288 272 256 288 256 288C256 288 224 272 224 240C224 208 256 192 256 192Z" fill="#f6e6d6"/>
  <circle cx="256" cy="384" r="32" fill="#e3c79f"/>
  <text x="256" y="450" text-anchor="middle" fill="#e3c79f" font-family="Arial, sans-serif" font-size="32" font-weight="bold">IBD Tracker</text>
</svg>